<?xml version="1.0" standalone="no"?>
<!DOCTYPE svg PUBLIC "-//W3C//DTD SVG 20010904//EN"
 "http://www.w3.org/TR/2001/REC-SVG-20010904/DTD/svg10.dtd">
<svg version="1.0" xmlns="http://www.w3.org/2000/svg"
 width="233.000000pt" height="233.000000pt" viewBox="0 0 233.000000 233.000000"
 preserveAspectRatio="xMidYMid meet">
<metadata>
Created by potrace 1.11, written by Peter Selinger 2001-2013
</metadata>
<g transform="translate(0.000000,233.000000) scale(0.100000,-0.100000)"
fill="#000000" stroke="none">
<path d="M0 1165 l0 -1165 1165 0 1165 0 0 1165 0 1165 -1165 0 -1165 0 0
-1165z m1137 773 c42 -39 32 -73 -67 -225 -49 -76 -94 -145 -100 -153 -5 -8
-45 -69 -89 -136 -43 -66 -85 -123 -93 -126 -8 -3 -46 9 -84 28 -57 28 -80 34
-136 34 -133 0 -256 -77 -315 -199 -25 -49 -28 -68 -28 -151 0 -83 3 -102 27
-150 35 -72 99 -136 168 -169 46 -22 69 -26 140 -26 77 0 92 3 154 34 l69 34
44 -49 c66 -75 68 -79 33 -104 -16 -11 -55 -33 -87 -47 -151 -69 -282 -66
-443 11 -119 56 -222 179 -259 306 -7 25 -17 58 -22 74 -24 79 -1 218 55 331
31 62 126 175 147 175 4 0 14 6 21 13 23 23 141 75 200 87 65 15 174 9 234
-12 32 -12 45 -12 58 -3 9 7 16 15 16 19 0 3 36 61 81 127 44 67 78 128 75
135 -4 11 -36 14 -144 14 -126 0 -142 2 -166 21 -34 27 -34 68 0 103 l27 26
230 0 c223 0 231 -1 254 -22z m720 -180 c27 -25 30 -64 7 -96 -13 -19 -24 -22
-79 -22 l-64 0 -31 -44 c-34 -51 -40 -83 -12 -70 9 4 50 9 90 12 224 14 447
-152 521 -387 15 -45 14 -235 -1 -280 -65 -200 -212 -333 -413 -376 -65 -14
-130 -17 -167 -6 -21 6 -57 16 -80 23 -40 12 -128 58 -173 91 -19 15 -18 16
25 57 82 76 84 77 143 48 129 -63 190 -64 317 -4 62 29 127 96 158 164 22 48
26 71 25 142 0 75 -4 94 -31 150 -28 60 -84 130 -102 130 -5 0 -15 6 -22 13
-7 7 -37 23 -67 35 -90 37 -192 27 -291 -30 l-37 -22 -54 45 c-30 25 -67 53
-82 63 -24 15 -28 22 -22 44 4 15 14 36 24 47 10 11 32 43 49 70 17 28 36 55
42 62 17 20 12 23 -37 23 -34 0 -53 6 -70 22 -27 26 -30 73 -6 100 15 16 35
18 216 18 192 0 202 -1 224 -22z m-893 -412 c18 -7 73 -55 123 -105 l89 -92
45 48 c24 27 55 64 69 82 55 75 97 94 149 66 36 -18 65 -68 57 -99 -3 -11 -48
-66 -101 -121 -52 -55 -95 -104 -95 -109 0 -14 61 -87 132 -158 54 -54 68 -74
68 -98 0 -53 -58 -90 -117 -75 -16 4 -66 45 -116 96 -48 49 -90 89 -93 89 -3
0 -51 -47 -107 -105 -116 -120 -140 -129 -198 -77 -28 25 -30 31 -24 66 6 30
29 61 106 143 55 58 99 108 99 112 0 11 -48 68 -110 130 -69 70 -90 100 -90
129 0 30 29 80 49 85 27 8 31 7 65 -7z"/>
</g>
</svg>
