<svg fill="#9d9d9d" height="512pt" viewBox="0 -90 512 512" width="512pt" xmlns="http://www.w3.org/2000/svg"><path d="m512 53.90625c0-15.167969-6.296875-28.894531-16.417969-38.699219-.125-.132812-.253906-.261719-.386719-.390625-10.066406-9.554687-23.242187-14.816406-37.09375-14.816406h-404.203124c-13.851563 0-27.027344 5.261719-37.09375 14.816406-.132813.128906-.261719.257813-.386719.390625-10.121094 9.804688-16.417969 23.527344-16.417969 38.699219v224.464844c0 13.648437 5.097656 26.128906 13.492188 35.636718.148437.1875.304687.375.46875.558594 3.921874 4.324219 8.484374 7.941406 13.476562 10.753906 6.558594 3.710938 13.96875 6.089844 21.855469 6.761719h.011719c.074218.007813.148437.011719.222656.019531 1.449218.117188 2.910156.175782 4.371094.175782h404.203124c1.460938 0 2.921876-.058594 4.371094-.175782.074219-.007812.148438-.011718.222656-.019531h.011719c7.886719-.671875 15.296875-3.050781 21.855469-6.761719 4.996094-2.8125 9.554688-6.429687 13.476562-10.753906.164063-.183594.320313-.367187.46875-.558594 8.390626-9.507812 13.492188-21.984374 13.492188-35.632812zm-37.011719 253.855469c-.042969.023437-.082031.042969-.121093.066406-.042969.023437-.085938.050781-.128907.074219-3.859375 2.175781-8.128906 3.589844-12.558593 4.128906-.003907 0-.007813 0-.015626 0-.085937.011719-.175781.023438-.261718.03125-1.25.140625-2.519532.214844-3.804688.214844h-404.195312c-1.285156 0-2.554688-.074219-3.804688-.214844-.089844-.007812-.183594-.019531-.273437-.03125-4.449219-.542969-8.734375-1.964844-12.605469-4.152344l-.027344-.015625c-.070312-.039062-.136718-.078125-.207031-.117187-.644531-.375-1.273437-.765625-1.890625-1.179688l44.4375-56.582031c3.414062-4.339844 2.65625-10.628906-1.6875-14.039063-4.339844-3.414062-10.628906-2.65625-14.039062 1.6875l-41.550782 52.902344c-1.453125-3.777344-2.253906-7.878906-2.253906-12.164062v-224.464844c0-6.386719 1.777344-12.367188 4.859375-17.472656l116.601563 102.8125-27.945313 35.476562c-3.417969 4.339844-2.671875 10.625 1.667969 14.042969 1.832031 1.445313 4.011718 2.144531 6.179687 2.144531 2.957031 0 5.890625-1.308594 7.863281-3.8125l27.257813-34.605468 60.851563 53.65625c11.023437 9.714843 24.84375 14.574218 38.664062 14.574218s27.640625-4.859375 38.664062-14.574218l60.851563-53.65625 121.378906 154.082031c-.621093.414062-1.257812.8125-1.90625 1.1875zm-421.085937-287.757813h404.195312c4.988282 0 9.730469 1.082032 14 3.027344l-121.753906 107.359375c-.101562.082031-.199219.167969-.292969.257813l-68.613281 60.5c-14.5 12.785156-36.371094 12.785156-50.871094 0l-68.613281-60.5c-.097656-.089844-.195313-.175782-.296875-.261719l-121.757812-107.355469c4.273437-1.945312 9.015624-3.027344 14.003906-3.027344zm316.636718 119.238282 116.601563-102.808594c3.082031 5.105468 4.859375 11.085937 4.859375 17.472656v224.464844c0 4.292968-.800781 8.402344-2.261719 12.183594zm0 0"/><path d="m107.078125 206.929688c-.25-.601563-.546875-1.179688-.90625-1.71875-.371094-.550782-.792969-1.0625-1.25-1.523438-.460937-.457031-.972656-.878906-1.523437-1.25-.539063-.359375-1.117188-.667969-1.71875-.917969-.609376-.25-1.238282-.441406-1.878907-.570312-1.28125-.261719-2.609375-.261719-3.902343 0-.636719.128906-1.269532.320312-1.867188.570312-.609375.25-1.191406.558594-1.730469.917969-.550781.371094-1.0625.792969-1.519531 1.25-.460938.460938-.882812.972656-1.242188 1.523438-.359374.539062-.667968 1.117187-.917968 1.71875-.25.609374-.449219 1.238281-.570313 1.871093-.128906.648438-.199219 1.308594-.199219 1.957031 0 .652344.070313 1.3125.199219 1.953126.121094.636718.320313 1.269531.570313 1.867187.25.609375.558594 1.191406.917968 1.730469.359376.550781.78125 1.058594 1.242188 1.519531.457031.460937.96875.882813 1.519531 1.242187.539063.359376 1.121094.667969 1.730469.917969.597656.25 1.230469.441407 1.867188.570313.640624.128906 1.300781.199218 1.953124.199218.648438 0 1.308594-.070312 1.949219-.199218s1.269531-.320313 1.878907-.570313c.601562-.25 1.179687-.558593 1.71875-.917969.550781-.359374 1.0625-.78125 1.523437-1.242187.457031-.460937.878906-.96875 1.25-1.519531.359375-.539063.65625-1.121094.90625-1.730469.25-.597656.453125-1.230469.582031-1.867187.128906-.640626.191406-1.300782.191406-1.953126 0-.648437-.0625-1.308593-.191406-1.957031-.128906-.632812-.332031-1.261719-.582031-1.871093zm0 0"/></svg>